{"asset":{"generator":"Khronos glTF Spline I/O v0.0.1","version":"2.0"},"scenes":[{"nodes":[0]}],"nodes":[{"name":"","children":[1,2,3]},{"name":"Cube","matrix":[-4.440892098500626e-16,0,1.0000000000000004,0,-1.0000000000000004,-4.440892098500626e-16,0,0,0,-1.0000000000000004,-4.440892098500626e-16,0,-44.3695275303282,-29.006706314993817,-33.00670631499382,1],"mesh":0},{"name":"Sphere","matrix":[-4.440892098500626e-16,0,1.0000000000000004,0,-1.0000000000000004,-4.440892098500626e-16,0,0,0,-1.0000000000000004,-4.440892098500626e-16,0,29.016191803036786,-27.23838518552365,30.23838518552366,1],"mesh":1},{"name":"personal","camera":0,"translation":[398.15799400580374,-535.0139945257074,-767.4495474697457],"rotation":[0.9344353955782535,-0.0651037456465309,0.23193643830324145,0.26229274176101675]}],"cameras":[{"type":"orthographic","orthographic":{"xmag":1269,"ymag":1320,"zfar":500000,"znear":-500000}}],"meshes":[{"primitives":[{"attributes":{"POSITION":1,"NORMAL":2,"TEXCOORD_0":3},"indices":0}]},{"primitives":[{"attributes":{"POSITION":5,"NORMAL":6,"TEXCOORD_0":7},"indices":4}]}],"buffers":[{"uri":"data:application/octet-stream;base64,","byteLength":840},{"uri":"data:application/octet-stream;base64,","byteLength":183584}],"bufferViews":[{"buffer":0,"byteOffset":0,"byteLength":72,"target":34963},{"buffer":0,"byteOffset":72,"byteLength":288,"target":34962},{"buffer":0,"byteOffset":360,"byteLength":288,"target":34962},{"buffer":0,"byteOffset":648,"byteLength":192,"target":34962},{"buffer":1,"byteOffset":0,"byteLength":48384,"target":34963},{"buffer":1,"byteOffset":48384,"byteLength":50700,"target":34962},{"buffer":1,"byteOffset":99084,"byteLength":50700,"target":34962},{"buffer":1,"byteOffset":149784,"byteLength":33800,"target":34962}],"accessors":[{"bufferView":0,"byteOffset":0,"componentType":5123,"count":36,"type":"SCALAR","min":[0],"max":[23]},{"bufferView":1,"byteOffset":0,"componentType":5126,"count":24,"type":"VEC3","min":[-29.00670623779297,-28.36952781677246,-29.00670623779297],"max":[29.00670623779297,28.36952781677246,29.00670623779297]},{"bufferView":2,"byteOffset":0,"componentType":5126,"count":24,"type":"VEC3","min":[-1,-1,-1],"max":[1,1,1]},{"bufferView":3,"byteOffset":0,"componentType":5126,"count":24,"type":"VEC2","min":[0,0],"max":[1,1]},{"bufferView":4,"byteOffset":0,"componentType":5123,"count":24192,"type":"SCALAR","min":[0],"max":[4224]},{"bufferView":5,"byteOffset":0,"componentType":5126,"count":4225,"type":"VEC3","min":[-27.238384246826172,-27.016191482543945,-27.238384246826172],"max":[27.238384246826172,27.016191482543945,27.238384246826172]},{"bufferView":6,"byteOffset":0,"componentType":5126,"count":4225,"type":"VEC3","min":[-1,-1,-1],"max":[1,1,1]},{"bufferView":7,"byteOffset":0,"componentType":5126,"count":4225,"type":"VEC2","min":[-0.0078125,0],"max":[1.0078125,1]}],"extensions":{"KHR_lights_punctual":{"lights":[]}},"extensionsUsed":["KHR_lights_punctual"]}