{"asset":{"generator":"Khronos glTF Spline I/O v0.0.1","version":"2.0"},"scenes":[{"nodes":[0]}],"nodes":[{"name":"","children":[1,2]},{"name":"Teapot","matrix":[1,0,0,0,0,1,0,0,0,0,1,0,0,0,0,1],"mesh":0},{"name":"personal","camera":0,"translation":[580.6736267766968,301.82409136115524,756.5443502641832],"rotation":[-0.14568327198507308,0.31639686701388725,0.04924126009127976,0.9360794331210053]}],"cameras":[{"type":"orthographic","orthographic":{"xmag":1680,"ymag":976,"zfar":500000,"znear":-500000}}],"meshes":[{"primitives":[{"attributes":{"POSITION":0,"NORMAL":1,"TEXCOORD_0":2}}]}],"buffers":[{"uri":"data:application/octet-stream;base64,","byteLength":1410816}],"bufferViews":[{"buffer":0,"byteOffset":0,"byteLength":529056,"target":34962},{"buffer":0,"byteOffset":529056,"byteLength":529056,"target":34962},{"buffer":0,"byteOffset":1058112,"byteLength":352704,"target":34962}],"accessors":[{"bufferView":0,"byteOffset":0,"componentType":5126,"count":44088,"type":"VEC3","min":[-46.62698745727539,-19.456953048706055,-31.084657669067383],"max":[53.37301254272461,31.783945083618164,31.084657669067383]},{"bufferView":1,"byteOffset":0,"componentType":5126,"count":44088,"type":"VEC3","min":[-0.9998447299003601,-1,-1],"max":[0.9998517036437988,1,1]},{"bufferView":2,"byteOffset":0,"componentType":5126,"count":44088,"type":"VEC2","min":[0,0],"max":[1,0.984470009803772]}],"extensions":{"KHR_lights_punctual":{"lights":[]}},"extensionsUsed":["KHR_lights_punctual"]}